<svg fill="none" xmlns="http://www.w3.org/2000/svg" viewBox="0.54 0.47 18.54 19.63"> <path fill-rule="evenodd" clip-rule="evenodd" d="M15.6272 5.85343C15.2298 5.82061 14.7157 5.81992 13.9594 5.81992H12.8999C12.4123 5.81992 12.017 5.42039 12.017 4.92755C12.017 4.43471 12.4123 4.03518 12.8999 4.03518L13.9959 4.03518C14.7066 4.03517 15.2932 4.03516 15.771 4.07462C16.2673 4.1156 16.7235 4.20356 17.152 4.42423C17.8166 4.76645 18.3569 5.31251 18.6955 5.98415C18.9138 6.41725 19.0008 6.87834 19.0414 7.37994C19.0804 7.86288 19.0804 8.45573 19.0804 9.17405V12.2814C19.0804 12.9997 19.0804 13.5925 19.0414 14.0755C19.0008 14.5771 18.9138 15.0381 18.6955 15.4712C18.3569 16.1429 17.8166 16.6889 17.152 17.0312C16.7235 17.2518 16.2673 17.3398 15.771 17.3808C15.2932 17.4202 14.7066 17.4202 13.9959 17.4202H13.8106L11.8045 19.7861C11.6367 19.984 11.3918 20.0978 11.134 20.0978C10.8763 20.0978 10.6314 19.984 10.4636 19.7861L8.45754 17.4202H8.01329C7.42203 17.4202 6.93399 17.4202 6.53444 17.3927C6.12018 17.3641 5.73697 17.303 5.36813 17.1486C4.50257 16.7863 3.8149 16.0913 3.45644 15.2165C3.3037 14.8437 3.24321 14.4564 3.21495 14.0377C3.18769 13.6339 3.1877 13.1406 3.18771 12.543V12.5124C3.18771 12.0196 3.58301 11.6201 4.07064 11.6201C4.55826 11.6201 4.95356 12.0196 4.95356 12.5124C4.95356 13.1482 4.95404 13.5804 4.97671 13.9162C4.99884 14.2441 5.03912 14.4145 5.08793 14.5336C5.26716 14.971 5.61099 15.3185 6.04377 15.4997C6.16162 15.549 6.33025 15.5897 6.65462 15.6121C6.98693 15.635 7.41451 15.6355 8.04356 15.6355H8.86368C9.12145 15.6355 9.36636 15.7493 9.5341 15.9472L11.1341 17.8341L12.734 15.9472C12.9018 15.7493 13.1467 15.6355 13.4044 15.6355H13.9594C14.7157 15.6355 15.2298 15.6348 15.6272 15.602C16.0143 15.57 16.2123 15.5121 16.3504 15.441C16.6826 15.2698 16.9528 14.9968 17.1221 14.661C17.1924 14.5214 17.2498 14.3214 17.2814 13.9301C17.3139 13.5285 17.3145 13.0089 17.3145 12.2445V9.21092C17.3145 8.44654 17.3139 7.92692 17.2814 7.52527C17.2498 7.13404 17.1924 6.93397 17.1221 6.7944C16.9528 6.45858 16.6826 6.18555 16.3504 6.01444C16.2123 5.94333 16.0143 5.88539 15.6272 5.85343Z" fill="white"/> <path fill-rule="evenodd" clip-rule="evenodd" d="M5.39504 0.465698C5.77508 0.465698 6.11248 0.711483 6.23266 1.07588L7.08635 3.66433L9.64742 4.52715C10.008 4.64862 10.2511 4.98962 10.2511 5.37373C10.2511 5.75783 10.008 6.09884 9.64742 6.2203L7.08635 7.08312L6.23266 9.67158C6.11248 10.036 5.77508 10.2818 5.39504 10.2818C5.015 10.2818 4.6776 10.036 4.55742 9.67158L3.70373 7.08312L1.14266 6.2203C0.782125 6.09884 0.53894 5.75783 0.53894 5.37373C0.53894 4.98962 0.782125 4.64862 1.14266 4.52715L3.70373 3.66433L4.55742 1.07588C4.6776 0.711483 5.015 0.465698 5.39504 0.465698ZM5.39504 4.17999L5.23936 4.652C5.15148 4.91847 4.9446 5.12757 4.68095 5.21639L4.21393 5.37373L4.68095 5.53107C4.9446 5.61989 5.15148 5.82899 5.23936 6.09545L5.39504 6.56747L5.55071 6.09545C5.6386 5.82899 5.84548 5.61989 6.10913 5.53107L6.57615 5.37373L6.10913 5.21639C5.84548 5.12757 5.6386 4.91847 5.55071 4.652L5.39504 4.17999Z" fill="white"/> <path fill-rule="evenodd" clip-rule="evenodd" d="M11.1341 7.9616C11.3621 7.9616 11.5645 8.10907 11.6366 8.3277L12.2151 10.0816L13.9504 10.6662C14.1667 10.7391 14.3126 10.9437 14.3126 11.1741C14.3126 11.4046 14.1667 11.6092 13.9504 11.6821L12.2151 12.2667L11.6366 14.0205C11.5645 14.2392 11.3621 14.3867 11.1341 14.3867C10.906 14.3867 10.7036 14.2392 10.6315 14.0205L10.0531 12.2667L8.31776 11.6821C8.10144 11.6092 7.95553 11.4046 7.95553 11.1741C7.95553 10.9437 8.10144 10.7391 8.31776 10.6662L10.0531 10.0816L10.6315 8.3277C10.7036 8.10907 10.906 7.9616 11.1341 7.9616Z" fill="white"/> </svg>