<svg fill="none" xmlns="http://www.w3.org/2000/svg" viewBox="0 0 42 46"> <path fill-rule="evenodd" clip-rule="evenodd" d="M25.8305 4.8237C25.3451 4.70909 24.8017 4.69401 22.9371 4.69401H17.659C15.6149 4.69401 14.2254 4.69584 13.1513 4.78214C12.1051 4.86621 11.57 5.01858 11.1968 5.20561C10.2988 5.65563 9.56865 6.3737 9.11107 7.2569C8.92091 7.62396 8.76597 8.15015 8.68049 9.17908C8.59274 10.2354 8.59088 11.602 8.59088 13.6123V21.1225C8.59088 22.4187 7.52247 23.4695 6.20452 23.4695C4.88658 23.4695 3.81817 22.4187 3.81817 21.1225L3.81817 13.5154C3.81814 11.6262 3.81811 10.067 3.92363 8.79685C4.03322 7.47765 4.26843 6.26498 4.85856 5.12594C5.77371 3.35952 7.23397 1.92338 9.03006 1.02335C10.1882 0.442974 11.4213 0.211651 12.7626 0.103867C14.0541 9.2361e-05 15.6395 0.000116983 17.5605 0.000146919L22.9371 0.000148038C23.0192 0.000148038 23.1002 0.000109988 23.1802 7.24981e-05C24.6956 -0.000636454 25.8405 -0.00117251 26.9447 0.259532C27.9187 0.4895 28.8498 0.868805 29.7038 1.38352C30.672 1.96703 31.4812 2.76364 32.5522 3.81794C32.6087 3.8736 32.666 3.92997 32.7241 3.98707L37.946 9.12269C38.004 9.17979 38.0613 9.23611 38.1179 9.29171C39.1899 10.345 39.9999 11.1409 40.5932 12.0931C41.1166 12.933 41.5023 13.8487 41.7361 14.8066C42.0012 15.8925 42.0006 17.0186 41.9999 18.5089C41.9999 18.5875 41.9999 18.6672 41.9999 18.748V28.7296C41.9999 30.6188 41.9999 32.178 41.8944 33.4482C41.7848 34.7674 41.5496 35.9801 40.9595 37.1191C40.0443 38.8855 38.5841 40.3217 36.788 41.2217C35.6298 41.8021 34.3967 42.0334 33.0554 42.1412C31.7639 42.245 30.1785 42.2449 28.2576 42.2449H25.2954C23.9774 42.2449 22.909 41.1942 22.909 39.898C22.909 38.6018 23.9774 37.551 25.2954 37.551H28.159C30.2031 37.551 31.5927 37.5492 32.6667 37.4629C33.7129 37.3788 34.248 37.2265 34.6212 37.0394C35.5192 36.5894 36.2494 35.8714 36.707 34.9882C36.8971 34.6211 37.0521 34.0949 37.1375 33.066C37.2253 32.0096 37.2271 30.643 37.2271 28.6327V18.748C37.2271 16.9141 37.2118 16.3797 37.0953 15.9024C36.9784 15.4234 36.7855 14.9656 36.5238 14.5456C36.263 14.127 35.8896 13.7385 34.5711 12.4417L29.3493 7.30613C28.0308 6.00942 27.6357 5.64222 27.2101 5.3857C26.7831 5.12834 26.3175 4.93869 25.8305 4.8237Z" fill="#1D4ED8"/> <path fill-rule="evenodd" clip-rule="evenodd" d="M10.9772 24.4082C11.5935 24.4082 12.1407 24.7961 12.3356 25.3711L14.4955 31.7439L20.9754 33.8682C21.5601 34.0599 21.9545 34.598 21.9545 35.2041C21.9545 35.8102 21.5601 36.3483 20.9754 36.54L14.4955 38.6643L12.3356 45.0371C12.1407 45.6122 11.5935 46 10.9772 46C10.3609 46 9.81379 45.6122 9.6189 45.0371L7.45893 38.6643L0.979034 36.54C0.394364 36.3483 0 35.8102 0 35.2041C0 34.598 0.394364 34.0599 0.979034 33.8682L7.45893 31.7439L9.6189 25.3711C9.81379 24.7961 10.3609 24.4082 10.9772 24.4082Z" fill="#1D4ED8"/> <path fill-rule="evenodd" clip-rule="evenodd" d="M25.2954 2.34708C26.6133 2.34708 27.6817 3.39784 27.6817 4.69401V14.0817H37.2271C38.5451 14.0817 39.6135 15.1325 39.6135 16.4287C39.6135 17.7248 38.5451 18.7756 37.2271 18.7756H25.2954C23.9774 18.7756 22.909 17.7248 22.909 16.4287V4.69401C22.909 3.39784 23.9774 2.34708 25.2954 2.34708Z" fill="#1D4ED8"/> </svg>