<svg fill="none" xmlns="http://www.w3.org/2000/svg" viewBox="10.89 12.53 47.29 45.02"> <path d="M37.5743 13.6594L37.8465 13.9145L58.1808 33.8909L55.9999 36.1091L53.1999 33.3589L53.2014 54.4445C53.2014 56.084 51.9321 57.428 50.3221 57.5462L50.0903 57.5556H18.9792C17.3397 57.5556 15.9957 56.2863 15.8759 54.6763L15.8681 54.4445L15.8665 33.3605L13.0697 36.1091L10.8888 33.8909L31.2012 13.9347C32.9325 12.1676 35.7248 12.0696 37.5743 13.6594ZM33.5517 15.9989L33.4023 16.1342L18.9777 30.3038L18.9792 54.4445L26.7554 54.4429L26.757 38.8889C26.757 37.2494 28.0263 35.9054 29.6363 35.7856L29.8681 35.7778H39.2014C40.841 35.7778 42.185 37.0471 42.3048 38.6571L42.3125 38.8889L42.311 54.4429L50.0903 54.4445L50.0888 30.3022L35.6237 16.0907C35.0574 15.5354 34.1739 15.5011 33.5517 15.9989ZM39.2014 38.8889H29.8681L29.8665 54.4429H39.1999L39.2014 38.8889Z" fill="#E4B300"/> </svg>