<svg width="212" height="227" viewBox="0 0 212 227" fill="none" xmlns="http://www.w3.org/2000/svg">
<g filter="url(#filter0_d_27_66)">
<g filter="url(#filter1_d_27_66)">
<path d="M17.3212 67.4012C15.8858 52.9651 27.1865 40.909 41.4059 42.563C44.2097 42.8891 47.419 43.2667 51.1329 43.7037C58.1593 44.5305 66.9915 45.5697 78.2984 46.8746C80.3399 47.1102 82.2797 48.0035 83.767 49.4064L118.389 82.0636L134.12 167.745C136.809 182.39 125.92 196.031 111.051 196.584C91.2128 197.321 73.0341 197.876 52.5776 198.352C39.6638 198.652 28.7678 188.798 27.6494 175.911C24.4647 139.215 21.624 110.658 17.9428 73.6507C17.7383 71.5945 17.5312 69.5123 17.3212 67.4012Z" fill="url(#paint0_linear_27_66)"/>
<path d="M17.3212 67.4012C15.8858 52.9651 27.1865 40.909 41.4059 42.563C44.2097 42.8891 47.419 43.2667 51.1329 43.7037C58.1593 44.5305 66.9915 45.5697 78.2984 46.8746C80.3399 47.1102 82.2797 48.0035 83.767 49.4064L118.389 82.0636L134.12 167.745C136.809 182.39 125.92 196.031 111.051 196.584C91.2128 197.321 73.0341 197.876 52.5776 198.352C39.6638 198.652 28.7678 188.798 27.6494 175.911C24.4647 139.215 21.624 110.658 17.9428 73.6507C17.7383 71.5945 17.5312 69.5123 17.3212 67.4012Z" fill="url(#paint1_linear_27_66)" fill-opacity="0.2"/>
<path d="M17.3212 67.4012C15.8858 52.9651 27.1865 40.909 41.4059 42.563C44.2097 42.8891 47.419 43.2667 51.1329 43.7037C58.1593 44.5305 66.9915 45.5697 78.2984 46.8746C80.3399 47.1102 82.2797 48.0035 83.767 49.4064L118.389 82.0636L134.12 167.745C136.809 182.39 125.92 196.031 111.051 196.584C91.2128 197.321 73.0341 197.876 52.5776 198.352C39.6638 198.652 28.7678 188.798 27.6494 175.911C24.4647 139.215 21.624 110.658 17.9428 73.6507C17.7383 71.5945 17.5312 69.5123 17.3212 67.4012Z" stroke="url(#paint2_linear_27_66)" stroke-width="3"/>
</g>
<g filter="url(#filter2_d_27_66)">
<path d="M87.0884 82.9341C83.4214 83.077 80.4908 79.9057 80.9102 76.26C82.3622 63.6394 82.6552 60.7425 81.8679 52.3666C81.6202 49.7303 84.6235 48.0438 86.6937 49.6947C96.0927 57.1904 103.758 63.978 113.544 73.8074C116.648 76.9257 114.4 82.181 110 82.203C102.327 82.2413 101.153 82.3862 87.0884 82.9341Z" fill="url(#paint3_linear_27_66)"/>
</g>
</g>
<g filter="url(#filter3_d_27_66)">
<path d="M36.758 126.238C36.7181 124.769 38.5723 124.283 40.0413 124.323C51.1395 124.624 98.7962 125.957 100.211 126.664C102.67 127.894 98.9989 130.213 96.2508 130.12L39.8657 128.204C38.5141 128.158 36.7946 127.59 36.758 126.238Z" fill="url(#paint4_linear_27_66)"/>
</g>
<g filter="url(#filter4_d_27_66)">
<path d="M38.8489 143.068C38.7876 141.66 40.5308 141.128 41.9408 141.145C52.299 141.275 95.399 141.853 96.6947 142.52C99.0268 143.721 95.5589 146.006 92.9362 145.954L41.8184 144.943C40.5235 144.917 38.9051 144.362 38.8489 143.068Z" fill="url(#paint5_linear_27_66)"/>
</g>
<g filter="url(#filter5_d_27_66)">
<path d="M40.9074 160.612C40.8176 159.164 42.5504 158.528 44.0019 158.524C54.1539 158.496 94.2733 158.429 95.5019 159.11C97.842 160.405 94.3525 162.814 91.6777 162.8L43.9296 162.543C42.6015 162.536 40.9895 161.938 40.9074 160.612Z" fill="url(#paint6_linear_27_66)"/>
</g>
<g filter="url(#filter6_d_27_66)">
<path d="M42.664 178.938C42.541 177.488 44.2723 176.817 45.7274 176.779C55.9657 176.515 96.6301 175.507 97.8897 176.159C100.274 177.393 96.8266 179.889 94.142 179.937L45.7452 180.799C44.413 180.823 42.7766 180.266 42.664 178.938Z" fill="url(#paint7_linear_27_66)"/>
</g>
<g filter="url(#filter7_d_27_66)">
<path d="M36.7574 109.344C36.7574 108.395 37.5486 107.637 38.4968 107.678L56.5662 108.459C57.5432 108.501 58.2765 109.368 58.1563 110.338C58.0489 111.205 57.2931 111.844 56.4202 111.806L38.3515 111.01C37.46 110.97 36.7574 110.236 36.7574 109.344Z" fill="url(#paint8_linear_27_66)"/>
</g>
<g filter="url(#filter8_f_27_66)">
<ellipse cx="115.904" cy="164.994" rx="14.5481" ry="13.6138" fill="url(#paint9_radial_27_66)" fill-opacity="0.74"/>
</g>
<g filter="url(#filter9_d_27_66)">
<path d="M164.873 80.7787H166.209L165.602 81.5075L164.873 80.7787Z" fill="#A2A2A2"/>
<path d="M185.193 96.6087L183.903 96.2602L184.767 95.3923L185.193 96.6087Z" fill="#A2A2A2"/>
<path d="M172.379 72.7346C175.128 69.3348 179.389 67.5266 183.744 67.912L184.308 67.9619C188.144 68.3014 191.512 70.653 193.152 74.1379C195.1 78.2792 194.531 83.1676 191.682 86.75L145.769 144.49C142.11 149.09 137.484 152.828 132.217 155.437L123.619 159.696C119.768 161.604 115.463 158.085 116.568 153.932L119.195 144.047C120.639 138.614 123.213 133.546 126.747 129.174L172.379 72.7346Z" fill="url(#paint10_linear_27_66)"/>
<g filter="url(#filter10_d_27_66)">
<path d="M170.888 73.0541C171.309 72.6331 171.892 72.4139 172.487 72.4431C180.973 72.8605 188.467 78.1105 191.759 85.9439L191.981 86.4728C192.272 87.1647 192.197 87.9582 191.771 88.5766C189.573 91.7725 187.974 93.6366 185.265 96.5757C185.214 96.6313 185.122 96.6195 185.088 96.552L183.937 94.2704C180.219 86.8969 173.085 81.8491 164.894 80.7971C164.828 80.7886 164.794 80.713 164.83 80.6569C166.872 77.4967 168.264 75.6758 170.888 73.0541Z" fill="url(#paint11_linear_27_66)"/>
</g>
<g filter="url(#filter11_f_27_66)">
<path d="M165.912 83.5726L169.61 85.1024L129.767 134.712L122.722 136.291L165.912 83.5726Z" fill="url(#paint12_linear_27_66)" fill-opacity="0.74"/>
</g>
<g filter="url(#filter12_f_27_66)">
<path d="M172.88 84.5444L178.842 90.9824L133.533 145.766L128.796 140.664L172.88 84.5444Z" fill="url(#paint13_linear_27_66)" fill-opacity="0.82"/>
</g>
<g filter="url(#filter13_f_27_66)">
<path d="M121.902 137.011C122.093 136.322 122.923 136.05 123.484 136.491L139.689 149.233C140.269 149.69 140.172 150.595 139.509 150.918L124.674 158.153C120.803 160.041 116.515 156.477 117.664 152.325L121.902 137.011Z" fill="url(#paint14_linear_27_66)"/>
</g>
<g filter="url(#filter14_f_27_66)">
<path d="M127.58 140.178L135.598 145.884L116.613 162.286L115.434 160.979L127.58 140.178Z" fill="url(#paint15_linear_27_66)" fill-opacity="0.82"/>
</g>
<g filter="url(#filter15_f_27_66)">
<path d="M180.265 93.8577L183.979 95.3605L140.056 149.376L138.513 149.41L180.265 93.8577Z" fill="url(#paint16_linear_27_66)" fill-opacity="0.82"/>
</g>
<g filter="url(#filter16_f_27_66)">
<path d="M138.277 150.425L140.221 150.719L116.732 162.511L115.92 162.529L138.277 150.425Z" fill="url(#paint17_linear_27_66)" fill-opacity="0.82"/>
</g>
<g filter="url(#filter17_f_27_66)">
<path d="M122.592 135.747L125.289 139.125L117.611 158.71L115.677 160.1L122.592 135.747Z" fill="url(#paint18_linear_27_66)" fill-opacity="0.8"/>
</g>
<g filter="url(#filter18_f_27_66)">
<ellipse cx="189.3" cy="73.8768" rx="5.06989" ry="2.26104" transform="rotate(46.5051 189.3 73.8768)" fill="white" fill-opacity="0.35"/>
</g>
<g filter="url(#filter19_f_27_66)">
<ellipse cx="179.319" cy="70.6434" rx="3.29976" ry="2.06218" transform="rotate(152.639 179.319 70.6434)" fill="#63B7EB" fill-opacity="0.58"/>
</g>
<g filter="url(#filter20_f_27_66)">
<path d="M171.311 72.6402C175.198 72.3973 178.49 73.0699 184.43 76.6488C189.167 80.6574 192.325 85.3947 191.961 88.1886L190.746 90.1321C187.936 78.9845 183.774 75.1203 169.853 74.2194L171.311 72.6402Z" fill="white" fill-opacity="0.3"/>
</g>
<g filter="url(#filter21_f_27_66)">
<path d="M165.751 79.5957C169.638 79.3528 172.93 80.0254 178.87 83.6043C183.607 87.6128 186.766 92.3502 186.401 95.1441L185.158 96.4487C178.87 84.423 173.254 82.7224 164.873 80.7788L165.751 79.5957Z" fill="url(#paint19_linear_27_66)" fill-opacity="0.16"/>
</g>
<g filter="url(#filter22_f_27_66)">
<path d="M171.797 72.5187L178.356 73.6119L171.068 81.5076L165.237 80.5358C167.256 77.0876 168.677 75.3232 171.797 72.5187Z" fill="url(#paint20_linear_27_66)" fill-opacity="0.61"/>
</g>
<g filter="url(#filter23_f_27_66)">
<path d="M191.875 88.1456L189.435 81.9235L183.007 90.7398L185.175 96.2706C188.058 93.5146 189.575 91.8133 191.875 88.1456Z" fill="url(#paint21_linear_27_66)" fill-opacity="0.68"/>
</g>
<g filter="url(#filter24_f_27_66)">
<path d="M122.236 135.319L140.214 149.918L139.128 150.382L122.236 136.478V135.319Z" fill="url(#paint22_linear_27_66)"/>
</g>
</g>
<defs>
<filter id="filter0_d_27_66" x="0.698486" y="0.909729" width="184.331" height="222.949" filterUnits="userSpaceOnUse" color-interpolation-filters="sRGB">
<feFlood flood-opacity="0" result="BackgroundImageFix"/>
<feColorMatrix in="SourceAlpha" type="matrix" values="0 0 0 0 0 0 0 0 0 0 0 0 0 0 0 0 0 0 127 0" result="hardAlpha"/>
<feOffset dx="17" dy="-8"/>
<feGaussianBlur stdDeviation="16"/>
<feComposite in2="hardAlpha" operator="out"/>
<feColorMatrix type="matrix" values="0 0 0 0 0 0 0 0 0 0 0 0 0 0 0 0 0 0 0.06 0"/>
<feBlend mode="normal" in2="BackgroundImageFix" result="effect1_dropShadow_27_66"/>
<feBlend mode="normal" in="SourceGraphic" in2="effect1_dropShadow_27_66" result="shape"/>
</filter>
<filter id="filter1_d_27_66" x="8.69849" y="33.9097" width="154.331" height="192.949" filterUnits="userSpaceOnUse" color-interpolation-filters="sRGB">
<feFlood flood-opacity="0" result="BackgroundImageFix"/>
<feColorMatrix in="SourceAlpha" type="matrix" values="0 0 0 0 0 0 0 0 0 0 0 0 0 0 0 0 0 0 127 0" result="hardAlpha"/>
<feOffset dx="10" dy="10"/>
<feGaussianBlur stdDeviation="8.5"/>
<feComposite in2="hardAlpha" operator="out"/>
<feColorMatrix type="matrix" values="0 0 0 0 0 0 0 0 0 0 0 0 0 0 0 0 0 0 0.15 0"/>
<feBlend mode="normal" in2="BackgroundImageFix" result="effect1_dropShadow_27_66"/>
<feBlend mode="normal" in="SourceGraphic" in2="effect1_dropShadow_27_66" result="shape"/>
</filter>
<filter id="filter2_d_27_66" x="34.8701" y="23.0402" width="104.114" height="103.899" filterUnits="userSpaceOnUse" color-interpolation-filters="sRGB">
<feFlood flood-opacity="0" result="BackgroundImageFix"/>
<feColorMatrix in="SourceAlpha" type="matrix" values="0 0 0 0 0 0 0 0 0 0 0 0 0 0 0 0 0 0 127 0" result="hardAlpha"/>
<feOffset dx="-11" dy="9"/>
<feGaussianBlur stdDeviation="17.5"/>
<feComposite in2="hardAlpha" operator="out"/>
<feColorMatrix type="matrix" values="0 0 0 0 0.5875 0 0 0 0 0.508902 0 0 0 0 0.506719 0 0 0 0.67 0"/>
<feBlend mode="normal" in2="BackgroundImageFix" result="effect1_dropShadow_27_66"/>
<feBlend mode="normal" in="SourceGraphic" in2="effect1_dropShadow_27_66" result="shape"/>
</filter>
<filter id="filter3_d_27_66" x="30.7573" y="122.321" width="76.2635" height="17.8014" filterUnits="userSpaceOnUse" color-interpolation-filters="sRGB">
<feFlood flood-opacity="0" result="BackgroundImageFix"/>
<feColorMatrix in="SourceAlpha" type="matrix" values="0 0 0 0 0 0 0 0 0 0 0 0 0 0 0 0 0 0 127 0" result="hardAlpha"/>
<feOffset dy="4"/>
<feGaussianBlur stdDeviation="3"/>
<feComposite in2="hardAlpha" operator="out"/>
<feColorMatrix type="matrix" values="0 0 0 0 0.570833 0 0 0 0 0.444774 0 0 0 0 0.444774 0 0 0 0.4 0"/>
<feBlend mode="normal" in2="BackgroundImageFix" result="effect1_dropShadow_27_66"/>
<feBlend mode="normal" in="SourceGraphic" in2="effect1_dropShadow_27_66" result="shape"/>
</filter>
<filter id="filter4_d_27_66" x="32.8473" y="139.145" width="70.617" height="16.8099" filterUnits="userSpaceOnUse" color-interpolation-filters="sRGB">
<feFlood flood-opacity="0" result="BackgroundImageFix"/>
<feColorMatrix in="SourceAlpha" type="matrix" values="0 0 0 0 0 0 0 0 0 0 0 0 0 0 0 0 0 0 127 0" result="hardAlpha"/>
<feOffset dy="4"/>
<feGaussianBlur stdDeviation="3"/>
<feComposite in2="hardAlpha" operator="out"/>
<feColorMatrix type="matrix" values="0 0 0 0 0.570833 0 0 0 0 0.444774 0 0 0 0 0.444774 0 0 0 0.4 0"/>
<feBlend mode="normal" in2="BackgroundImageFix" result="effect1_dropShadow_27_66"/>
<feBlend mode="normal" in="SourceGraphic" in2="effect1_dropShadow_27_66" result="shape"/>
</filter>
<filter id="filter5_d_27_66" x="34.9041" y="156.508" width="67.3682" height="16.2917" filterUnits="userSpaceOnUse" color-interpolation-filters="sRGB">
<feFlood flood-opacity="0" result="BackgroundImageFix"/>
<feColorMatrix in="SourceAlpha" type="matrix" values="0 0 0 0 0 0 0 0 0 0 0 0 0 0 0 0 0 0 127 0" result="hardAlpha"/>
<feOffset dy="4"/>
<feGaussianBlur stdDeviation="3"/>
<feComposite in2="hardAlpha" operator="out"/>
<feColorMatrix type="matrix" values="0 0 0 0 0.570833 0 0 0 0 0.444774 0 0 0 0 0.444774 0 0 0 0.4 0"/>
<feBlend mode="normal" in2="BackgroundImageFix" result="effect1_dropShadow_27_66"/>
<feBlend mode="normal" in="SourceGraphic" in2="effect1_dropShadow_27_66" result="shape"/>
</filter>
<filter id="filter6_d_27_66" x="36.6578" y="173.943" width="68.0324" height="16.8566" filterUnits="userSpaceOnUse" color-interpolation-filters="sRGB">
<feFlood flood-opacity="0" result="BackgroundImageFix"/>
<feColorMatrix in="SourceAlpha" type="matrix" values="0 0 0 0 0 0 0 0 0 0 0 0 0 0 0 0 0 0 127 0" result="hardAlpha"/>
<feOffset dy="4"/>
<feGaussianBlur stdDeviation="3"/>
<feComposite in2="hardAlpha" operator="out"/>
<feColorMatrix type="matrix" values="0 0 0 0 0.570833 0 0 0 0 0.444774 0 0 0 0 0.444774 0 0 0 0.4 0"/>
<feBlend mode="normal" in2="BackgroundImageFix" result="effect1_dropShadow_27_66"/>
<feBlend mode="normal" in="SourceGraphic" in2="effect1_dropShadow_27_66" result="shape"/>
</filter>
<filter id="filter7_d_27_66" x="32.7574" y="107.676" width="29.4118" height="12.131" filterUnits="userSpaceOnUse" color-interpolation-filters="sRGB">
<feFlood flood-opacity="0" result="BackgroundImageFix"/>
<feColorMatrix in="SourceAlpha" type="matrix" values="0 0 0 0 0 0 0 0 0 0 0 0 0 0 0 0 0 0 127 0" result="hardAlpha"/>
<feOffset dy="4"/>
<feGaussianBlur stdDeviation="2"/>
<feComposite in2="hardAlpha" operator="out"/>
<feColorMatrix type="matrix" values="0 0 0 0 0.631373 0 0 0 0 0.513726 0 0 0 0 0.521569 0 0 0 0.47 0"/>
<feBlend mode="normal" in2="BackgroundImageFix" result="effect1_dropShadow_27_66"/>
<feBlend mode="normal" in="SourceGraphic" in2="effect1_dropShadow_27_66" result="shape"/>
</filter>
<filter id="filter8_f_27_66" x="68.3563" y="118.381" width="95.0962" height="93.2276" filterUnits="userSpaceOnUse" color-interpolation-filters="sRGB">
<feFlood flood-opacity="0" result="BackgroundImageFix"/>
<feBlend mode="normal" in="SourceGraphic" in2="BackgroundImageFix" result="shape"/>
<feGaussianBlur stdDeviation="16.5" result="effect1_foregroundBlur_27_66"/>
</filter>
<filter id="filter9_d_27_66" x="98.4338" y="54.8608" width="112.863" height="128.668" filterUnits="userSpaceOnUse" color-interpolation-filters="sRGB">
<feFlood flood-opacity="0" result="BackgroundImageFix"/>
<feColorMatrix in="SourceAlpha" type="matrix" values="0 0 0 0 0 0 0 0 0 0 0 0 0 0 0 0 0 0 127 0" result="hardAlpha"/>
<feOffset dy="4"/>
<feGaussianBlur stdDeviation="8.5"/>
<feComposite in2="hardAlpha" operator="out"/>
<feColorMatrix type="matrix" values="0 0 0 0 0 0 0 0 0 0 0 0 0 0 0 0 0 0 0.2 0"/>
<feBlend mode="normal" in2="BackgroundImageFix" result="effect1_dropShadow_27_66"/>
<feBlend mode="normal" in="SourceGraphic" in2="effect1_dropShadow_27_66" result="shape"/>
</filter>
<filter id="filter10_d_27_66" x="146.815" y="64.4406" width="53.3401" height="50.1704" filterUnits="userSpaceOnUse" color-interpolation-filters="sRGB">
<feFlood flood-opacity="0" result="BackgroundImageFix"/>
<feColorMatrix in="SourceAlpha" type="matrix" values="0 0 0 0 0 0 0 0 0 0 0 0 0 0 0 0 0 0 127 0" result="hardAlpha"/>
<feOffset dx="-5" dy="5"/>
<feGaussianBlur stdDeviation="6.5"/>
<feComposite in2="hardAlpha" operator="out"/>
<feColorMatrix type="matrix" values="0 0 0 0 0.313726 0 0 0 0 0.415686 0 0 0 0 0.54902 0 0 0 0.37 0"/>
<feBlend mode="normal" in2="BackgroundImageFix" result="effect1_dropShadow_27_66"/>
<feBlend mode="normal" in="SourceGraphic" in2="effect1_dropShadow_27_66" result="shape"/>
</filter>
<filter id="filter11_f_27_66" x="102.722" y="63.5726" width="86.888" height="92.7186" filterUnits="userSpaceOnUse" color-interpolation-filters="sRGB">
<feFlood flood-opacity="0" result="BackgroundImageFix"/>
<feBlend mode="normal" in="SourceGraphic" in2="BackgroundImageFix" result="shape"/>
<feGaussianBlur stdDeviation="10" result="effect1_foregroundBlur_27_66"/>
</filter>
<filter id="filter12_f_27_66" x="108.796" y="64.5444" width="90.0462" height="101.222" filterUnits="userSpaceOnUse" color-interpolation-filters="sRGB">
<feFlood flood-opacity="0" result="BackgroundImageFix"/>
<feBlend mode="normal" in="SourceGraphic" in2="BackgroundImageFix" result="shape"/>
<feGaussianBlur stdDeviation="10" result="effect1_foregroundBlur_27_66"/>
</filter>
<filter id="filter13_f_27_66" x="104.474" y="123.277" width="48.5972" height="48.3957" filterUnits="userSpaceOnUse" color-interpolation-filters="sRGB">
<feFlood flood-opacity="0" result="BackgroundImageFix"/>
<feBlend mode="normal" in="SourceGraphic" in2="BackgroundImageFix" result="shape"/>
<feGaussianBlur stdDeviation="6.5" result="effect1_foregroundBlur_27_66"/>
</filter>
<filter id="filter14_f_27_66" x="95.4338" y="120.178" width="60.1643" height="62.1078" filterUnits="userSpaceOnUse" color-interpolation-filters="sRGB">
<feFlood flood-opacity="0" result="BackgroundImageFix"/>
<feBlend mode="normal" in="SourceGraphic" in2="BackgroundImageFix" result="shape"/>
<feGaussianBlur stdDeviation="10" result="effect1_foregroundBlur_27_66"/>
</filter>
<filter id="filter15_f_27_66" x="117.513" y="72.8577" width="87.4655" height="97.5524" filterUnits="userSpaceOnUse" color-interpolation-filters="sRGB">
<feFlood flood-opacity="0" result="BackgroundImageFix"/>
<feBlend mode="normal" in="SourceGraphic" in2="BackgroundImageFix" result="shape"/>
<feGaussianBlur stdDeviation="10.5" result="effect1_foregroundBlur_27_66"/>
</filter>
<filter id="filter16_f_27_66" x="94.9197" y="129.425" width="66.3018" height="54.1042" filterUnits="userSpaceOnUse" color-interpolation-filters="sRGB">
<feFlood flood-opacity="0" result="BackgroundImageFix"/>
<feBlend mode="normal" in="SourceGraphic" in2="BackgroundImageFix" result="shape"/>
<feGaussianBlur stdDeviation="10.5" result="effect1_foregroundBlur_27_66"/>
</filter>
<filter id="filter17_f_27_66" x="106.677" y="126.747" width="27.6119" height="42.3524" filterUnits="userSpaceOnUse" color-interpolation-filters="sRGB">
<feFlood flood-opacity="0" result="BackgroundImageFix"/>
<feBlend mode="normal" in="SourceGraphic" in2="BackgroundImageFix" result="shape"/>
<feGaussianBlur stdDeviation="4.5" result="effect1_foregroundBlur_27_66"/>
</filter>
<filter id="filter18_f_27_66" x="170.443" y="54.8822" width="37.7135" height="37.9892" filterUnits="userSpaceOnUse" color-interpolation-filters="sRGB">
<feFlood flood-opacity="0" result="BackgroundImageFix"/>
<feBlend mode="normal" in="SourceGraphic" in2="BackgroundImageFix" result="shape"/>
<feGaussianBlur stdDeviation="7.5" result="effect1_foregroundBlur_27_66"/>
</filter>
<filter id="filter19_f_27_66" x="161.238" y="53.2655" width="36.1618" height="34.7558" filterUnits="userSpaceOnUse" color-interpolation-filters="sRGB">
<feFlood flood-opacity="0" result="BackgroundImageFix"/>
<feBlend mode="normal" in="SourceGraphic" in2="BackgroundImageFix" result="shape"/>
<feGaussianBlur stdDeviation="7.5" result="effect1_foregroundBlur_27_66"/>
</filter>
<filter id="filter20_f_27_66" x="165.853" y="68.5957" width="30.1364" height="25.5364" filterUnits="userSpaceOnUse" color-interpolation-filters="sRGB">
<feFlood flood-opacity="0" result="BackgroundImageFix"/>
<feBlend mode="normal" in="SourceGraphic" in2="BackgroundImageFix" result="shape"/>
<feGaussianBlur stdDeviation="2" result="effect1_foregroundBlur_27_66"/>
</filter>
<filter id="filter21_f_27_66" x="160.873" y="75.5512" width="29.5569" height="24.8974" filterUnits="userSpaceOnUse" color-interpolation-filters="sRGB">
<feFlood flood-opacity="0" result="BackgroundImageFix"/>
<feBlend mode="normal" in="SourceGraphic" in2="BackgroundImageFix" result="shape"/>
<feGaussianBlur stdDeviation="2" result="effect1_foregroundBlur_27_66"/>
</filter>
<filter id="filter22_f_27_66" x="158.237" y="65.5187" width="27.1189" height="22.9889" filterUnits="userSpaceOnUse" color-interpolation-filters="sRGB">
<feFlood flood-opacity="0" result="BackgroundImageFix"/>
<feBlend mode="normal" in="SourceGraphic" in2="BackgroundImageFix" result="shape"/>
<feGaussianBlur stdDeviation="3.5" result="effect1_foregroundBlur_27_66"/>
</filter>
<filter id="filter23_f_27_66" x="176.007" y="74.9235" width="22.8679" height="28.3471" filterUnits="userSpaceOnUse" color-interpolation-filters="sRGB">
<feFlood flood-opacity="0" result="BackgroundImageFix"/>
<feBlend mode="normal" in="SourceGraphic" in2="BackgroundImageFix" result="shape"/>
<feGaussianBlur stdDeviation="3.5" result="effect1_foregroundBlur_27_66"/>
</filter>
<filter id="filter24_f_27_66" x="111.236" y="124.319" width="39.9778" height="37.0625" filterUnits="userSpaceOnUse" color-interpolation-filters="sRGB">
<feFlood flood-opacity="0" result="BackgroundImageFix"/>
<feBlend mode="normal" in="SourceGraphic" in2="BackgroundImageFix" result="shape"/>
<feGaussianBlur stdDeviation="5.5" result="effect1_foregroundBlur_27_66"/>
</filter>
<linearGradient id="paint0_linear_27_66" x1="21.7552" y1="73.8544" x2="128.726" y2="83.4847" gradientUnits="userSpaceOnUse">
<stop stop-color="#E1E1E1"/>
<stop offset="0.302349" stop-color="#F9F9F9"/>
<stop offset="0.608197" stop-color="#F2F2F2"/>
<stop offset="1" stop-color="#DADADA"/>
</linearGradient>
<linearGradient id="paint1_linear_27_66" x1="64.2799" y1="50.6631" x2="70.1179" y2="206.274" gradientUnits="userSpaceOnUse">
<stop stop-color="white"/>
<stop offset="0.442708" stop-color="#BCBCBC"/>
<stop offset="1" stop-color="#6B6B6B"/>
</linearGradient>
<linearGradient id="paint2_linear_27_66" x1="26.7473" y1="40.6016" x2="133.288" y2="190.749" gradientUnits="userSpaceOnUse">
<stop stop-color="#EBEBEB" stop-opacity="0.67"/>
<stop offset="1" stop-color="#CACACA" stop-opacity="0.5"/>
</linearGradient>
<linearGradient id="paint3_linear_27_66" x1="112.72" y1="94.4189" x2="60.3664" y2="63.7143" gradientUnits="userSpaceOnUse">
<stop stop-color="#DFDFDF"/>
<stop offset="0.505208" stop-color="#F7F7F7"/>
<stop offset="0.96875" stop-color="#DFDFDF"/>
</linearGradient>
<linearGradient id="paint4_linear_27_66" x1="69.1125" y1="124.262" x2="69.1125" y2="130.268" gradientUnits="userSpaceOnUse">
<stop stop-color="#797979"/>
<stop offset="0.744792" stop-color="#2E2E30"/>
</linearGradient>
<linearGradient id="paint5_linear_27_66" x1="68.3086" y1="140.643" x2="68.4063" y2="146.515" gradientUnits="userSpaceOnUse">
<stop stop-color="#797979"/>
<stop offset="0.744792" stop-color="#2E2E30"/>
</linearGradient>
<linearGradient id="paint6_linear_27_66" x1="68.6644" y1="157.575" x2="68.8845" y2="163.783" gradientUnits="userSpaceOnUse">
<stop stop-color="#797979"/>
<stop offset="0.744792" stop-color="#2E2E30"/>
</linearGradient>
<linearGradient id="paint7_linear_27_66" x1="70.6914" y1="175.252" x2="71.0522" y2="181.454" gradientUnits="userSpaceOnUse">
<stop stop-color="#797979"/>
<stop offset="0.744792" stop-color="#2E2E30"/>
</linearGradient>
<linearGradient id="paint8_linear_27_66" x1="47.5683" y1="107.603" x2="47.5683" y2="111.874" gradientUnits="userSpaceOnUse">
<stop stop-color="#636364"/>
<stop offset="1" stop-color="#2E2E30"/>
</linearGradient>
<radialGradient id="paint9_radial_27_66" cx="0" cy="0" r="1" gradientUnits="userSpaceOnUse" gradientTransform="translate(115.904 164.994) rotate(90) scale(13.6138 14.5481)">
<stop offset="0.0104167" stop-color="#584545" stop-opacity="0.5"/>
<stop offset="0.348958" stop-color="#886F6F" stop-opacity="0.5"/>
<stop offset="1" stop-color="#B49898" stop-opacity="0.2"/>
</radialGradient>
<linearGradient id="paint10_linear_27_66" x1="189.896" y1="70.0893" x2="113.733" y2="164.716" gradientUnits="userSpaceOnUse">
<stop stop-color="#A9E6F9"/>
<stop offset="0.0680836" stop-color="#6A9ABA"/>
<stop offset="0.195968" stop-color="#52769A"/>
<stop offset="0.257654" stop-color="#528EB3"/>
<stop offset="0.446149" stop-color="#528DB2"/>
<stop offset="0.58243" stop-color="#528DB2"/>
<stop offset="0.679642" stop-color="#5992B4"/>
<stop offset="0.757464" stop-color="#66A0C5"/>
<stop offset="0.895747" stop-color="#6193B4"/>
<stop offset="1" stop-color="#61B2BB"/>
</linearGradient>
<linearGradient id="paint11_linear_27_66" x1="184.308" y1="75.7985" x2="176.777" y2="86.245" gradientUnits="userSpaceOnUse">
<stop stop-color="#F9F6F8"/>
<stop offset="0.161458" stop-color="#F1E6E4"/>
<stop offset="0.625" stop-color="#E6DAD8"/>
<stop offset="1" stop-color="#D5D5D5"/>
</linearGradient>
<linearGradient id="paint12_linear_27_66" x1="167.224" y1="84.514" x2="125.563" y2="135.795" gradientUnits="userSpaceOnUse">
<stop stop-color="#7EA0C2" stop-opacity="0.63"/>
<stop offset="1" stop-color="white" stop-opacity="0.48"/>
</linearGradient>
<linearGradient id="paint13_linear_27_66" x1="174.22" y1="85.5465" x2="129.526" y2="138.298" gradientUnits="userSpaceOnUse">
<stop stop-color="#598AA6" stop-opacity="0.3"/>
<stop offset="1" stop-color="#6395AE" stop-opacity="0.87"/>
</linearGradient>
<linearGradient id="paint14_linear_27_66" x1="131.208" y1="141.262" x2="115.945" y2="162.15" gradientUnits="userSpaceOnUse">
<stop stop-color="#6398B9"/>
<stop offset="0.489583" stop-color="#689FC1"/>
<stop offset="1" stop-color="#61B2BB"/>
</linearGradient>
<linearGradient id="paint15_linear_27_66" x1="129.946" y1="141.959" x2="114.011" y2="159.517" gradientUnits="userSpaceOnUse">
<stop stop-color="#4989B1"/>
<stop offset="0.484375" stop-color="#5DA6D5"/>
<stop offset="1" stop-color="#61B2BB"/>
</linearGradient>
<linearGradient id="paint16_linear_27_66" x1="181.592" y1="94.8038" x2="139.26" y2="147.162" gradientUnits="userSpaceOnUse">
<stop stop-color="#34587B" stop-opacity="0.78"/>
<stop offset="1" stop-color="#3E5C7A" stop-opacity="0.62"/>
</linearGradient>
<linearGradient id="paint17_linear_27_66" x1="138.969" y1="150.617" x2="133.612" y2="167.523" gradientUnits="userSpaceOnUse">
<stop stop-color="#34587B"/>
<stop offset="1" stop-color="#3E5C7A"/>
</linearGradient>
<linearGradient id="paint18_linear_27_66" x1="122.232" y1="136.957" x2="113.94" y2="158.617" gradientUnits="userSpaceOnUse">
<stop stop-color="white" stop-opacity="0.14"/>
<stop offset="1" stop-color="white" stop-opacity="0.4"/>
</linearGradient>
<linearGradient id="paint19_linear_27_66" x1="183.701" y1="92.683" x2="173.983" y2="77.4991" gradientUnits="userSpaceOnUse">
<stop stop-color="#A38E8E" stop-opacity="0.72"/>
<stop offset="0.859375" stop-color="#E5DAD8"/>
</linearGradient>
<linearGradient id="paint20_linear_27_66" x1="168.031" y1="76.4058" x2="176.655" y2="78.8352" gradientUnits="userSpaceOnUse">
<stop stop-color="white" stop-opacity="0.71"/>
<stop offset="1" stop-color="#EADEDC" stop-opacity="0.58"/>
</linearGradient>
<linearGradient id="paint21_linear_27_66" x1="189.774" y1="91.3467" x2="183.336" y2="84.0584" gradientUnits="userSpaceOnUse">
<stop stop-color="#C4B7B5"/>
<stop offset="1" stop-color="#D4CFCE" stop-opacity="0"/>
</linearGradient>
<linearGradient id="paint22_linear_27_66" x1="125.011" y1="135.319" x2="135.156" y2="151.224" gradientUnits="userSpaceOnUse">
<stop stop-color="#537CA2" stop-opacity="0.06"/>
<stop offset="1" stop-color="#537CA2" stop-opacity="0.76"/>
</linearGradient>
</defs>
</svg>
